<?xml version="1.0" encoding="UTF-8"?>
<svg id="Layer_1" xmlns="http://www.w3.org/2000/svg" viewBox="0 0 1265.313089037364989 531.083217047847938">
    <defs>
        <style>.cls-1{fill:#e96024;}.cls-2{fill:#ffffff;}</style>
    </defs>
    <g>
        <path class="cls-1"
              d="m644.511603270128035,350.309758928908195c2.220530368524123-.616914204740169,4.616033479329417-1.028190341234222,7.186509332413152-1.233828409480338,2.570475853084645-.202030382839439,5.112090222906772-.306653259667655,7.624843109465473-.306653259667655,2.685921786135623,0,5.418743482572609.306653259667655,8.193053561200031.923567464407824s5.301493706818292,1.746119737392291,7.581550884571698,3.387616597960005c2.278253335050067,1.641496860565894,4.132603634678162,3.899907925871958,5.564854741590352,6.771625510511512,1.430447264207032,2.875325270046233,2.146572817663582,6.533518273594382,2.146572817663582,10.981794381457803,0,4.379730085116535-.672833328561865,8.073999942742375-2.016696142981345,11.082809572879341s-3.126059405892192,5.4548203366503-5.344785931712067,7.338032119541822c-2.220530368524123,1.879604097483025-4.762144738346251,3.232486125423748-7.624843109465473,4.051430713001537-2.862698371120132.822552272988105-5.813785034731154,1.230220724073661-8.849652305426389,1.230220724073661h-1.446681848543449c-.672833328561865,0-1.372724297681998-.014430741630349-2.103280592768897-.05050759570986-.730556295087808-.032469168671014-1.446681848543449-.082976764380874-2.146572817664492-.151522787129579-.701694811824382-.068546022748706-1.199555398105986-.137092045497411-1.489974073436315-.205638068246117v27.295747795702482h-7.274897624905861v-71.114694759302438Zm14.986325184158886,5.848058046105507c-1.52063939940399,0-2.979948146873539.036076854077692-4.381533927818964.104622876826397s-2.512752886558701.238107236917131-3.329893631434061.512291327913772v29.759796929254662c.290418675330329.137092045497411.757613935646077.223676495286782,1.401585780944515.256145663955976.642168002595099.036076854079511,1.315001331156964.068546022750525,2.014892300278007.101015191419719.701694811824382.036076854079511,1.372724297681998.054115281118357,2.016696142981345.054115281118357h1.401585780944515c1.98603081701458,0,3.957630892398811-.223676495286782,5.914800226150874-.667421800450029s3.724935183592606-1.248259151112507,5.303297549521631-2.413541537844139c1.576558523224776-1.161674701323136,2.848267629487964-2.80317156188903,3.811519633381067-4.924490581697683.963252003892194-2.121319019808652,1.446681848542539-4.823475390279782,1.446681848542539-8.106469111413389,0-2.806779247297527-.454568361387828-5.148167076984464-1.358293556050739-7.031378859875986-.907332880071408-1.879604097483025-2.103280592769806-3.384008912551508-3.593254666207031-4.513214445205449s-3.171155473489307-1.933719378601381-5.03993651474957-2.41354153784232c-1.870584883963602-.47621447383608-3.739365925223865-.717929396159889-5.608146966484128-.717929396159889Z"/>
        <path class="cls-1"
              d="m773.596391005274199,421.424453688210633h-36.280688303922034v-71.832624155462327h7.274897624904952v64.238446371962709h29.005790679017082v7.594177783499617Z"/>
        <path class="cls-1"
              d="m818.117032780698537,385.506337767774312c0-11.970300183205836,2.159199716591502-21.155467231561488,6.48481452058877-27.551893459658459,4.322007118590591-6.396426228096971,10.485737637881357-9.596443184847885,18.489387715169869-9.596443184847885,4.32381096129393,0,8.063176886517795.891098295734992,11.218097775671595,2.669687201800116,3.15492088915471,1.778588906063305,5.76868896713313,4.293145635327164,7.843108076640419,7.543670187787939,2.072615266803041,3.246916867054097,3.60768540783738,7.146824792927873,4.601602737697249,11.696116092211014.992113487154711,4.552898984691637,1.488170230732976,9.632520038927396,1.488170230732976,15.238863162707275,0,11.973907868616152-2.175434300926099,21.159074916969985-6.528106745482546,27.555501145066955s-10.559695188741898,9.592835499441208-18.622872075259693,9.592835499441208c-4.264284152064647,0-7.960357852394736-.887490610328314-11.08461341558268-2.666079516391619-3.126059405891283-1.778588906065124-5.727200584942693-4.293145635327164-7.799815851745734-7.543670187789758-2.07441910950638-3.246916867054097-3.60768540783738-7.146824792926054-4.601602737697249-11.699723777617692-.993917329858959-4.54929129928496-1.488170230732976-9.628912353520718-1.488170230732976-15.238863162709094Zm7.711427559253934,0c0,3.968453948622482.335514742929263,7.731269828997029,1.008348071490218,11.288447641125458.669225643154277,3.55717781212843,1.70823904061217,6.688648746132458,3.109824821556685,9.390805116603588,1.401585780945425,2.702156370469311,3.198213114048485,4.859552244357474,5.389881999310091,6.464972250845676,2.191668885261606,1.60902769189488,4.77657547997751,2.409933852435643,7.75471978414771,2.409933852435643,5.434978066908116,0,9.697458376268514-2.409933852435643,12.79465629889728-7.233409242715425s4.644894962591025-12.262522701241323,4.644894962591025-22.32074961829494c0-3.899907925871958-.335514742928353-7.644685379207658-1.00654422878597-11.234332360007102-.672833328562774-3.593254666206121-1.724473624946768-6.739156341840498-3.15492088915471-9.441312712311628-1.43225110691219-2.70215637047113-3.243309181646509-4.859552244357474-5.433174224203867-6.464972250845676-2.191668885261606-1.60902769189488-4.807240805944275-2.413541537844139-7.844911919343758-2.413541537844139-5.375451257678833,0-9.594639342145456,2.413541537844139-12.662975781510795,7.237016928123921-3.06653259666291,4.819867704871285-4.59979889499391,12.262522701241323-4.59979889499391,22.317141932884624Z"/>
        <path class="cls-1"
              d="m938.087003332942004,398.952181282787933l2.103280592769806,10.877171504631406h.0883882924918l2.278253335050067-11.082809572879341,14.809548599174377-49.154713681791691h7.274897624905861l-23.222670970253603,72.961829688114449h-3.2433091816456l-23.661004747305924-72.961829688114449h7.974788594025995l15.59782786078722,49.360351750039626Z"/>
        <path class="cls-1"
              d="m1015.729804837726988,349.591829532748307c1.109363262910847-.205638068246117,2.352210885910608-.360768540784193,3.724935183592606-.461783732203912,1.372724297681998-.104622876826397,2.804975404593279-.169561214168425,4.294949478031413-.205638068246117,1.489974073436315-.036076854077692,2.949282820907683-.068546022748706,4.381533927818964-.104622876828216,1.430447264207032-.032469168669195,2.759879336996164-.05050759570986,3.986492375661328-.05050759570986,4.908255997363085,0,9.158109407795564.891098295736811,12.751364074003504,2.669687201800116,3.593254666206121,1.778588906065124,6.556968228744154,4.257068781249473,8.894748373024413,7.43904731096336,2.335976301574192,3.181978529712069,4.074880668153128,6.995302005796475,5.214909257028921,11.439970428253218,1.138224746173364,4.44827610786524,1.70823904061217,9.340297520891909,1.70823904061217,14.676064239085463,0,4.859552244357474-.541152811176289,9.527897162100999-1.6216545908228,14.008642438635434-1.08050177964833,4.480745276534435-2.79054466296293,8.449199225155098-5.12652096453894,11.901754160457131-2.33778014427844,3.45616262070871-5.375451257677923,6.226865013928546-9.113013340198449,8.312107179657687-3.739365925224774,2.088849851139457-8.268814954764821,3.131470934004028-13.584739403213462,3.131470934004028-.934390520629677,0-2.146572817664492-.018038427038846-3.636546891100807-.05050759570986-1.489974073436315-.036076854077692-3.023240371769134-.104622876826397-4.599798894993-.205638068246117-1.578362365929934-.104622876828216-3.039474956103732-.191207326615768-4.381533927818964-.256145663957795-1.345666657123729-.068546022748706-2.308918661017742-.173168899575103-2.893363697086897-.310260945072514v-71.933639346882046Zm16.562883707383662,6.771625510511512h-2.496518302223194c-.907332880071408,0-1.79662733310397.036076854077692-2.673294887208613.101015191419719-.876667554104642.072153708157202-1.679377557347834.140699730905908-2.409933852435643.205638068246117-.730556295085989.068546022748706-1.300570589524796.140699730905908-1.708239040610351.205638068247936v57.466820861451197c.29041867532942.068546022748706.846002228137877.122661303865243,1.664946815715666.155130472536257.81714074487536.036076854077692,1.664946815717485.068546022748706,2.541614369822128.101015191419719.876667554104642.036076854077692,1.722669782242519.072153708157202,2.541614369822128.104622876828216.81714074487536.036076854077692,1.370920454979569.050507595708041,1.664946815717485.050507595708041,4.087507567081047,0,7.520220232638167-.818944587577789,10.296334153968928-2.46404913355218,2.774310078628332-1.641496860565894,4.994840447152455-3.84579264475542,6.659787262869941-6.616495037975255s2.848267629487964-5.952680922931904,3.549962441311436-9.545935589139845c.699890969121043-3.589646980799444,1.051640296385813-7.30195526546413,1.051640296385813-11.133317168587382,0-3.351539743882313-.322887844002253-6.721117914801653-.965055846596442-10.108734512761657-.642168002596009-3.384008912553327-1.751531265505037-6.44693382380683-3.32989363143497-9.185167048355652-1.576558523225685-2.734625539142144-3.694269857625841-4.974998177409361-6.353134003202285-6.721117914803472-2.658864145576445-1.742512051985614-6.003188518643583-2.615571920681759-10.034776961902026-2.615571920681759Z"/>
        <path class="cls-1"
              d="m1118.52538900595755,349.591829532748307h7.273093782201613v71.832624155462327h-7.273093782201613v-71.832624155462327Z"/>
        <path class="cls-1"
              d="m1202.126282961786274,398.952181282787933l2.103280592769806,10.877171504631406h.0883882924918l2.278253335050977-11.082809572879341,14.809548599174377-49.154713681791691h7.274897624905861l-23.222670970253603,72.961829688114449h-3.2433091816456l-23.661004747305924-72.961829688114449h7.974788594025085l15.59782786078722,49.360351750039626Z"/>
    </g>
    <g>
        <polyline class="cls-1"
                  points="205.799790660699728 237.7540736423216 236.152663861094879 177.927314412798296 66.390168158663073 0 204.657779962716631 237.7540736423216"/>
        <polygon class="cls-2"
                 points="150.89409766144945 429.094193563447334 241.428047094408612 462.950918919590549 310.224272008512344 429.094193563447334 150.89409766144945 429.094193563447334"/>
        <polygon class="cls-2"
                 points="420.906727983452583 120.675900964875837 420.906727983452583 162.004957900569934 461.807808775160083 158.132893678608525 616.834600165435404 141.231619373467765 420.906727983452583 120.675900964875837"/>
        <polygon class="cls-1"
                 points="307.283265202155235 50.663730625819881 267.43169450888945 126.913662897723043 307.283265202155235 113.668326560054993 307.283265202155235 50.663730625819881"/>
        <polygon class="cls-1"
                 points="312.242219334288166 49.387251885598744 312.242219334288166 111.938879924522553 409.606093602471447 81.797567603112839 312.242219334288166 49.387251885598744"/>
        <polygon class="cls-2"
                 points="594.155053446804231 433.67426160980358 306.167666406175158 263.615943177039298 413.546547991112675 373.720221642022807 594.155053446804231 433.67426160980358"/>
        <polygon class="cls-2"
                 points="310.224272008512344 429.046505949319908 409.490033489840243 379.141908587575017 590.098447844474322 439.095965370526756 310.224272008512344 429.046505949319908"/>
        <polygon class="cls-2"
                 points="124.716572230747261 423.214961179124657 308.34172923611095 155.84386085517508 414.404527504321777 168.267460010771174 300.730093971960741 258.17837074282761 124.716572230747261 423.214961179124657"/>
        <polygon class="cls-2"
                 points="415.766020191869757 120.675900964875837 312.242219334288166 151.06640840320506 415.766020191869757 162.004957900569934 415.766020191869757 120.675900964875837"/>
        <polygon class="cls-1"
                 points="120.45891483341984 418.068169703965395 297.705083807322808 159.397021627954018 241.683717665004224 178.110902987167719 120.45891483341984 418.068169703965395"/>
        <polyline class="cls-1"
                  points="124.716572230747261 423.214961179124657 90.801989680225233 488.223136644441183 0 531.083217047847938 123.439678723211728 424.433196793888783"/>
        <polygon class="cls-2"
                 points="594.155053446804231 433.67426160980358 306.167666406175158 263.615943177039298 413.546547991112675 373.720221642022807 594.155053446804231 433.67426160980358"/>
        <polygon class="cls-2"
                 points="310.224272008512344 429.046505949319908 409.490033489840243 379.141908587575017 590.098447844474322 439.095965370526756 310.224272008512344 429.046505949319908"/>
        <polygon class="cls-2"
                 points="124.716572230747261 423.214961179124657 308.34172923611095 155.84386085517508 414.404527504321777 168.267460010771174 300.730093971960741 258.17837074282761 124.716572230747261 423.214961179124657"/>
        <polygon class="cls-1"
                 points="120.45891483341984 418.068169703965395 297.705083807322808 159.397021627954018 241.683717665004224 178.110902987167719 120.45891483341984 418.068169703965395"/>
    </g>
    <g>
        <path class="cls-2"
              d="m685.568867054028487,295.765163247806413c-3.261347608685355,2.759879336996164-7.617627738650299,4.765752423752929-13.072448075301509,6.02122694568061-5.456624179354549,1.251866836519184-10.882583032743241,1.879604097483025-16.272465032053333,1.879604097483025-6.771625510511512,0-13.074251918003938-1.161674701323136-18.904271537070599-3.481416418562731-5.83182346177-2.316134031832917-10.943913684675863-6.172749732810189-15.332662983310911-11.566239417528777-4.390553141339296-5.393489684716769-7.837696548528584-12.478983825711111-10.345037906975449-21.256482422981207-2.510949043855362-8.777498597270096-3.762815880374546-19.564477966705454-3.762815880374546-32.357330422899395,0-13.290713042473726,1.410604994463938-24.326622705049886,4.233618826096972-33.107728987728478,2.821209988929695-8.773890911861599,6.519087531963123-15.769192917659893,11.097240314509691-20.971475275760895,4.576348939842319-5.202282358102821,9.811100466615244-8.871298417874641,15.707862265726362-11.007048179313642,5.893154113703531-2.128534390625646,11.85124656474818-3.196409271346056,17.870669667725451-3.196409271346056,6.142084406844333,0,11.503104922891907.501468271690101,16.083061548141814,1.504404815068483,4.576348939842319,1.006544228786879,8.306695651546761,2.13574976144082,11.192843977817574,3.387616597960005l-4.702617929116968,20.877675455158169c-2.384680054580713-1.251866836519184-5.173420874839394-2.222334211228372-8.371633988887879-2.915009809532421-3.198213114048485-.689067912897372-6.991694320389797-1.035405712049396-11.380443619024845-1.035405712049396-8.653033450699695,0-15.301997657345055,3.762815880374546-19.939677249120905,11.288447641125458-4.641287277183437,7.522024075342415-6.959225151718783,19.311939988156155-6.959225151718783,35.362532367627864,0,6.901502185193749.532133597655957,13.200520907277678,1.598204635672118,18.907879222477277,1.064267195311913,5.707358315199599,2.756271651587667,10.628241211490604,5.079621054235758,14.766256374281511,2.317937874536256,4.138015162790907,5.267220695443029,7.334424434135144,8.840633091906966,9.592835499441208,3.573412396463027,2.258411065306063,7.86836187449444,3.387616597960005,12.884848434093328,3.387616597960005,4.388749298635048,0,8.151565179009594-.595268092292827,11.2866437984203-1.789411962286977,3.133274776708276-1.190536184587472,5.95628860834131-2.60114117905141,8.465433809492424-4.231814983395452l4.702617929116968,19.939677249121814Z"/>
        <path class="cls-2"
              d="m766.830177022874523,301.032383943249442h-69.976470013129074v-131.676909700678152h23.700689286791203v109.857628354073313h46.275780726337871v21.819281346604839Z"/>
        <path class="cls-2"
              d="m778.681423587621794,169.35547424257129h23.702493129495451v131.676909700678152h-23.702493129495451v-131.676909700678152Z"/>
        <path class="cls-2"
              d="m905.653911516478729,233.124921511514913l2.633610347721515-25.206897944563025h-.941605891444851l-6.959225151719693,22.57328759684242-21.445885906892727,46.275780726336961h-7.899027200461205l-22.762691080753939-46.463380367546051-6.959225151719693-22.76088723804969h-1.129205532653032l3.573412396463937,25.394497585772115v68.095062072941801h-22.3838841129309v-131.676909700678152h22.76088723804969l27.463505167166659,56.99782175843211,4.515018287908788,16.36446100995272h.752202407534242l4.327418646702426-16.743267977775758,25.771500710889995-56.619014790609071h22.3838841129309v131.676909700678152h-23.700689286792112v-67.90746243173453Z"/>
        <path class="cls-2"
              d="m1021.527355288122635,199.829592882579163c0,3.261347608684446-.346337799152025,6.490226048699697-1.035405712049396,9.686635320043933-.689067912897372,3.200016956752734-1.785804276880299,6.2088265868897-3.290209091948782,9.030036575819395-1.506208657770912,2.821209988927876-3.481416418562731,5.299689864114043-5.925623282373635,7.42822425473787-2.446010706514244,2.13574976144082-5.361020516046665,3.762815880374546-8.748637114006669,4.892021413028488v1.129205532653941c3.010613472840305.75400625023758,5.860684945032517,1.879604097483025,8.55923363009515,3.387616597958186,2.694940999655955,1.504404815068483,5.047151885566564,3.542747070498081,7.054828815027577,6.111419080878477,2.004069244054335,2.572279695788893,3.604077722429793,5.707358315199599,4.796417749719694,9.405235858233937,1.190536184587472,3.701485228441015,1.787608119584547,8.059569201110207,1.787608119584547,13.074251918003938,0,6.771625510511512-1.161674701323136,12.637721983655865-3.479612575860301,17.587466363211206-2.323349402646272,4.956959750368696-5.456624179354549,9.001175092555059-9.407039700936366,12.132646026559087-3.948611678879388,3.138686304817384-8.557429787391811,5.458428022058797-13.82465048283575,6.962832837125461s-10.850113864072227,2.254803379899386-16.743267977775758,2.254803379899386h-6.771625510512422c-2.759879336996164,0-5.736219798462116-.093799820602726-8.934432912510601-.281399461811816s-6.490226048699697-.468999103019087-9.876038803956362-.844198385433629c-3.385812755255756-.378806967823039-6.52269521737071-.941605891444851-9.405235858233027-1.695612141684251v-129.793697917784812c4.138015162789998-.754006250239399,9.246497700288273-1.410604994465757,15.330859140607572-1.977011603496067,6.080753754909892-.562798923623632,12.132646026559087-.847806070842125,18.152069129536358-.847806070842125,5.51795483128808,0,10.815840852697875.443745305165066,15.895461906933633,1.316805173861212,5.079621054236668.880275239513139,9.529701004804338,2.510949043855362,13.355651379816663,4.892021413028488,3.824146532308077,2.384680054579803,6.867229173818487,5.674889146528585,9.123836396422121,9.877842646659701,2.256607222601815,4.202953500131116,3.385812755255756,9.625304668112221,3.385812755255756,16.270661189349994Zm-46.086377242426352,25.394497585770296c1.378135825794743,0,2.976340461466862-.093799820602726,4.796417749720604-.281399461809997,1.816469602847064-.18759964120909,3.292012934652121-.407668451085556,4.421218467305152-.660206429634854,3.634743048397468-1.378135825794743,6.739156341842317-3.636546891100807,9.311436037630301-6.771625510511512,2.568672010380396-3.131470934004028,3.854811858274843-7.208155444861404,3.854811858274843-12.226445847163632,0-3.261347608684446-.44013761975566-6.02122694568061-1.316805173860303-8.276030325579995-.878471396808891-2.258411065306063-2.069007581395454-4.044215342186362-3.573412396463937-5.361020516047574s-3.292012934652121-2.258411065306063-5.361020516047574-2.821209988929695c-2.069007581394544-.566406609030309-4.296753320734751-.847806070842125-6.677825689907877-.847806070842125-5.144559391576877,0-8.779302439973435.252537978549299-10.911444516005758.750398564830903v36.495345585688483h5.456624179354549Zm6.394622385393632,57.185421399639381c5.267220695443029,0,9.594639342144546-1.692004456275754,12.980452097400303-5.079621054235758,3.385812755255756-3.384008912551508,5.07781721153242-8.337360977513526,5.07781721153242-14.860056194884237,0-4.138015162789088-.562798923623632-7.431831940146367-1.692004456276663-9.874234961253023-1.129205532653032-2.446010706513334-2.633610347721515-4.329222489404856-4.515018287908788-5.646027663266068s-4.044215342186362-2.161003559294841-6.490226048700606-2.539810527117879c-2.444206863809995-.375199282414542-4.984017390927875-.562798923621813-7.617627738650299-.562798923621813h-9.594639342144546v37.433343791726656c1.002936543379292.375199282414542,2.729214011029399.660206429633035,5.173420874839394.847806070842125,2.446010706514244.187599641207271,4.670148760445954.281399461809997,6.677825689908786.281399461809997Z"/>
        <path class="cls-2"
              d="m1040.523622803093531,169.35547424257129h23.702493129494542v131.676909700678152h-23.702493129494542v-131.676909700678152Z"/>
        <path class="cls-2"
              d="m1112.192097272498359,236.32133078285915l-8.653033450698786-23.136086520464232h-.939802048742422l3.008809630136966,22.76088723804969v65.086252442804835h-22.3838841129309v-132.618515592123003h18.245868950139993l37.810346916847266,66.215457975456957,8.088430684372724,22.76088723804969h1.129205532652122l-3.010613472839395-22.385687955635149v-65.649051366426647h22.38568795563333v132.618515592123003h-18.245868950139993l-37.435147634430905-65.652659051835144Z"/>
        <path class="cls-2"
              d="m1224.681532131589847,232.937321870307642h40.631556905775142v58.314626932293322c-4.641287277183437,4.390553141338387-10.063638445164543,7.55449324401161-16.272465032052423,9.499035678836663-6.207022744185451,1.940934749416556-12.385184005108385,2.915009809532421-18.527268411951809,2.915009809532421-7.401166614179601,0-14.109657630055153-1.316805173859393-20.129080733033334-3.950415521581817-6.019423102976361-2.633610347722424-11.129709483178885-6.739156341840498-15.330859140605753-12.320245667766358-4.202953500132935-5.581089325925859-7.462497266113132-12.666583466920201-9.782238983352727-21.256482422981207-2.321545559943843-8.589898956062825-3.479612575860301-18.904271537070599-3.479612575860301-30.946725428433638,0-12.536706792237965,1.378135825792924-23.136086520466051,4.138015162789088-31.787316128460589,2.758075494293735-8.654837293403034,6.425287711359488-15.707862265726362,11.005244336611213-21.162682602378482,4.576348939841409-5.458428022058797,9.90490028721797-9.408843543640614,15.989261727536359-11.851246564747271,6.080753754911711-2.446010706513334,12.509649151679696-3.66901605977182,19.281274662191208-3.66901605977182,6.019423102976361,0,11.504908765595246.533937440361115,16.460064673259694,1.598204635673028,4.95154822225777,1.06787488072041,9.058898059081912,2.290880233977077,12.320245667766358,3.66901605977182l-4.890217570324239,20.502476172741808c-2.509145201151114-1.129205532652122-5.425958853387783-2.067203738690296-8.746833271301512-2.821209988927876-3.324482103324044-.750398564830903-7.368697445510406-1.129205532653941-12.132646026559087-1.129205532653941-4.392356984044454,0-8.371633988888789.880275239513139-11.945046385351816,2.633610347722424-3.575216239167275,1.756942793615963-6.584025869304241,4.516822130612127-9.030036575819395,8.279638010986673-2.446010706513334,3.759208194967869-4.325614803996359,8.622368124733839-5.642419977857571,14.57865673307424s-1.975207760791818,13.07064423259726-1.975207760791818,21.350282243583933c0,15.927931075604647,2.411737695139891,27.6493009656715,7.242428456234848,35.174932726420593,4.825279232982211,7.525631760750912,11.191040135112416,11.288447641125458,19.09187117827787,11.288447641125458,2.507341358446865,0,4.920882896291005-.382414653231535,7.242428456234848-1.14363627428429,2.319741717239594-.761221621054574,4.356280129964944-1.966188547272395,6.113222923580906-3.614900778653464v-27.22359408754528l-21.631681705395749-2.943871292796757v-13.983388640779594Z"/>
    </g>
</svg>
