<?xml version="1.0" standalone="no"?>
<!DOCTYPE svg PUBLIC "-//W3C//DTD SVG 20010904//EN"
 "http://www.w3.org/TR/2001/REC-SVG-20010904/DTD/svg10.dtd">
<svg version="1.0" xmlns="http://www.w3.org/2000/svg"
 width="816.000000pt" height="816.000000pt" viewBox="0 0 816.000000 816.000000"
 preserveAspectRatio="xMidYMid meet">
<metadata>
Created by potrace 1.14, written by Peter Selinger 2001-2017
</metadata>
<g transform="translate(0.000000,816.000000) scale(0.100000,-0.100000)"
fill="#000000" stroke="none">
<path d="M897 7565 c4 -11 44 -84 90 -162 46 -78 83 -147 83 -152 0 -5 4 -11
8 -13 6 -2 104 -166 193 -324 9 -17 36 -62 58 -99 23 -37 41 -70 41 -75 0 -4
8 -18 18 -31 11 -13 34 -51 52 -84 38 -68 86 -153 100 -175 34 -54 90 -151 90
-155 0 -3 12 -24 27 -48 15 -23 33 -51 39 -62 6 -11 21 -37 32 -57 12 -21 30
-53 41 -70 10 -18 67 -116 126 -218 60 -102 116 -198 125 -215 107 -185 251
-432 257 -440 4 -5 15 -23 23 -40 8 -16 17 -32 20 -35 3 -3 14 -21 24 -40 10
-19 35 -62 54 -95 19 -33 42 -74 52 -91 10 -17 37 -62 59 -99 23 -37 41 -69
41 -72 0 -2 16 -29 35 -59 19 -30 35 -61 35 -68 0 -8 4 -16 8 -18 5 -1 24 -29
43 -62 19 -32 38 -59 43 -60 5 0 68 116 140 259 72 143 134 262 139 263 4 2 7
12 7 22 0 10 4 21 9 24 17 11 111 217 104 229 -4 7 -35 41 -69 77 -35 36 -93
97 -131 136 -37 40 -138 145 -223 234 -85 90 -175 184 -200 210 -25 26 -115
120 -200 210 -85 89 -181 190 -213 224 -33 33 -132 137 -220 230 -224 234
-213 223 -397 416 -226 237 -372 390 -454 474 -37 39 -79 85 -92 101 -16 20
-22 23 -17 10z"/>
<path d="M4130 6519 c0 -387 1 -411 18 -406 9 3 69 21 132 42 63 20 129 40
145 45 103 29 213 63 230 70 11 5 65 22 120 39 106 31 169 51 410 126 83 26
162 50 177 52 29 6 57 29 35 30 -6 0 -208 67 -447 147 -239 81 -442 148 -450
150 -8 3 -90 30 -182 60 -92 31 -172 56 -178 56 -7 0 -10 -141 -10 -411z"/>
<path d="M4057 6903 c-3 -5 -25 -46 -49 -93 -43 -81 -83 -158 -248 -475 -40
-77 -91 -174 -113 -215 -74 -139 -104 -200 -101 -203 4 -3 154 44 194 60 8 3
20 7 25 9 6 1 75 24 155 51 l145 48 0 413 c0 226 -1 412 -2 412 -1 0 -4 -3 -6
-7z"/>
<path d="M5468 5984 c-4 -3 -37 -14 -75 -24 -37 -10 -108 -30 -158 -45 -49
-15 -97 -29 -105 -31 -8 -2 -44 -12 -80 -23 -36 -11 -157 -47 -270 -80 -113
-33 -268 -78 -345 -101 -77 -23 -162 -48 -190 -56 -81 -22 -111 -32 -100 -34
6 -1 24 -3 40 -4 17 -2 59 -7 95 -11 93 -10 186 -20 285 -31 28 -2 73 -7 100
-10 28 -3 66 -7 85 -9 19 -2 60 -6 90 -9 81 -9 139 -15 195 -21 28 -3 68 -7
90 -10 22 -2 69 -7 105 -11 36 -3 76 -7 90 -10 14 -2 61 -6 105 -10 l80 -6 -2
34 c-1 18 -2 140 -2 271 -1 190 -4 237 -14 237 -8 0 -16 -3 -19 -6z"/>
<path d="M5569 5963 c0 -16 -1 -136 -1 -268 l-1 -240 64 1 c63 1 217 13 252
19 9 2 50 6 90 10 91 7 203 18 312 31 17 2 53 6 80 8 28 2 70 7 95 10 103 13
148 18 195 22 28 2 62 6 77 9 14 3 55 7 90 10 34 2 63 5 63 6 0 1 14 3 30 4
17 1 55 5 85 9 30 3 78 9 105 11 75 8 147 16 180 20 17 2 61 7 99 10 38 3 72
7 75 9 3 2 44 7 91 10 47 4 99 9 115 11 17 3 53 8 80 10 28 3 73 8 100 11 28
3 64 7 80 8 17 2 62 7 100 11 39 5 78 9 87 10 38 3 25 12 -22 14 -27 1 -59 4
-72 6 -21 5 -68 10 -183 20 -55 5 -142 15 -190 20 -22 3 -69 7 -105 10 -36 3
-76 7 -90 10 -14 3 -56 7 -95 10 -38 3 -81 8 -95 10 -14 2 -54 7 -90 10 -36 3
-78 8 -95 10 -16 2 -57 6 -90 10 -33 3 -78 8 -100 10 -22 2 -69 7 -105 10 -36
3 -81 8 -100 10 -58 8 -112 14 -180 20 -36 3 -83 9 -105 12 -22 2 -58 6 -80 8
-22 1 -67 6 -100 10 -98 11 -117 13 -195 20 -41 4 -86 9 -100 11 -14 2 -56 6
-95 9 -38 3 -81 8 -95 11 -14 3 -55 8 -92 10 l-68 4 -1 -27z"/>
<path d="M4037 5467 c-79 -112 -181 -261 -221 -322 -22 -33 -43 -62 -46 -65
-3 -3 -27 -39 -55 -80 -27 -41 -53 -76 -57 -78 -5 -2 -8 -8 -8 -12 0 -8 -133
-205 -159 -236 -5 -6 -21 -30 -36 -54 -15 -24 -32 -48 -37 -54 -5 -6 -70 -101
-145 -211 -75 -110 -139 -202 -143 -205 -4 -3 -9 -12 -13 -20 -4 -8 -48 -73
-97 -145 -50 -71 -112 -161 -138 -200 -26 -38 -55 -79 -64 -89 -10 -11 -18
-24 -18 -28 0 -5 -5 -14 -10 -21 -19 -22 -103 -143 -210 -302 -58 -87 -109
-162 -115 -169 -5 -6 -23 -31 -40 -56 -16 -25 -33 -46 -37 -48 -5 -2 -8 -10
-8 -17 0 -7 -3 -15 -7 -17 -5 -1 -22 -24 -39 -49 -275 -405 -308 -453 -314
-459 -3 -3 -36 -52 -75 -110 -38 -58 -72 -107 -75 -110 -3 -3 -28 -39 -55 -80
-28 -41 -52 -77 -55 -80 -7 -6 -83 -118 -95 -140 -8 -14 12 3 89 75 18 17 83
77 145 135 62 58 139 130 171 160 32 30 106 100 165 155 59 55 130 122 158
149 29 26 101 94 161 150 59 55 130 121 156 146 26 25 103 97 171 160 67 63
148 140 180 170 32 30 106 100 165 155 59 55 126 118 149 140 23 22 91 86 151
142 60 56 137 128 171 160 196 185 286 268 301 280 57 43 310 244 325 257 9 9
22 16 27 16 6 0 10 4 10 8 0 5 18 21 40 38 23 16 51 37 63 48 12 10 49 39 82
64 33 26 69 54 80 64 29 24 186 148 225 178 18 14 38 30 44 35 6 6 29 24 51
40 22 17 42 32 45 36 3 3 48 39 100 79 52 41 97 77 100 80 3 3 46 37 95 75 50
38 95 74 102 80 6 5 28 23 47 39 20 15 36 32 36 36 0 4 -35 11 -77 15 -43 5
-85 9 -93 10 -42 6 -209 25 -255 29 -28 3 -80 10 -165 22 -19 3 -55 7 -80 9
-49 5 -93 10 -185 20 -33 4 -71 9 -85 10 -14 2 -65 8 -115 14 -49 7 -108 14
-130 16 -22 2 -62 7 -90 11 -123 15 -110 19 -158 -49z"/>
<path d="M3561 5355 l-365 -122 -191 -379 c-295 -583 -869 -1721 -1058 -2094
-92 -184 -206 -409 -252 -500 -116 -228 -117 -229 -32 -105 30 44 90 133 134
197 44 65 92 132 106 150 15 17 27 37 27 44 0 7 4 14 8 16 7 3 152 212 177
256 6 9 13 19 16 22 8 7 132 189 144 211 5 11 13 19 17 19 5 0 8 5 8 10 0 6 5
16 11 23 6 7 84 120 174 252 90 132 167 245 172 250 11 15 166 242 178 263 6
9 12 19 15 22 3 3 23 32 46 65 22 33 66 96 96 140 30 44 84 123 119 175 35 52
66 97 69 100 3 3 31 43 63 90 31 47 75 111 97 144 22 32 40 62 40 66 0 5 4 10
8 12 5 2 53 68 107 148 96 141 174 256 242 352 18 26 33 52 33 57 0 5 7 11 15
15 8 3 15 12 15 20 0 8 3 16 8 18 10 5 126 178 121 182 -2 2 -168 -52 -368
-119z"/>
<path d="M4100 4047 c47 -47 323 -330 700 -718 52 -54 225 -230 383 -393 l289
-295 201 -66 c111 -36 209 -69 217 -72 8 -3 20 -7 25 -9 6 -1 161 -52 345
-114 184 -62 340 -113 345 -115 6 -1 17 -5 25 -8 8 -3 87 -29 175 -58 88 -28
169 -55 180 -60 18 -7 213 -72 225 -75 3 0 12 -3 20 -7 23 -9 173 -58 190 -62
8 -2 74 -23 145 -48 72 -24 157 -52 190 -62 33 -11 64 -23 70 -27 5 -4 13 -8
18 -8 15 0 -32 34 -93 67 -30 16 -92 53 -138 81 -46 29 -86 52 -89 52 -3 0
-25 14 -50 30 -24 17 -46 30 -48 30 -6 0 -125 70 -182 106 -28 19 -54 34 -56
34 -3 0 -35 18 -72 41 -37 22 -82 49 -99 58 -17 10 -103 61 -191 113 -146 87
-478 283 -683 404 -45 27 -124 74 -175 104 -52 30 -176 104 -278 163 -101 60
-233 138 -294 174 -60 36 -130 77 -155 91 -25 13 -52 31 -61 38 -8 8 -18 14
-21 14 -3 0 -69 38 -147 85 -79 47 -147 85 -152 85 -5 0 -9 5 -9 10 0 6 -4 10
-9 10 -8 0 -42 20 -407 235 -102 61 -198 117 -212 125 -15 8 -43 25 -62 37
-19 11 -53 31 -75 43 l-40 22 55 -55z"/>
<path d="M4975 2352 c-236 -119 -433 -221 -436 -225 -3 -5 -9 -8 -13 -8 -3 1
-88 -41 -189 -91 -100 -51 -192 -97 -204 -101 -42 -16 -23 -22 70 -23 50 0
180 -4 287 -8 107 -5 236 -10 285 -11 269 -9 554 -19 845 -30 91 -4 219 -8
285 -10 137 -5 363 -13 545 -20 233 -9 425 -15 580 -20 85 -3 155 -5 155 -6 0
-1 30 -2 370 -13 99 -4 189 -8 200 -10 11 -2 24 -1 29 2 5 3 -55 27 -135 53
-79 27 -145 49 -146 50 -2 1 -6 2 -10 3 -15 3 -328 107 -348 115 -11 5 -65 23
-120 41 -55 17 -107 34 -115 37 -8 4 -18 7 -22 8 -5 2 -9 3 -10 5 -2 1 -10 3
-18 5 -8 2 -186 60 -395 130 -209 70 -384 128 -390 129 -5 2 -17 6 -25 9 -14
5 -329 110 -340 112 -3 1 -12 4 -20 7 -64 24 -263 88 -273 87 -6 0 -205 -98
-442 -217z"/>
<path d="M1599 1943 c-23 -21 -53 -47 -65 -58 -12 -11 -43 -38 -70 -60 -26
-22 -52 -45 -58 -50 -6 -6 -56 -48 -111 -95 -55 -47 -102 -87 -105 -91 -3 -3
-57 -50 -120 -104 -63 -54 -122 -106 -131 -114 -9 -9 -38 -34 -65 -56 -27 -22
-64 -54 -84 -71 -19 -17 -50 -44 -69 -60 -19 -16 -39 -34 -45 -39 -6 -6 -42
-37 -81 -70 -63 -55 -120 -104 -149 -130 -6 -5 -38 -32 -71 -60 -33 -27 -67
-57 -75 -65 -17 -16 -70 -62 -159 -139 -30 -25 -68 -58 -85 -73 -17 -16 -35
-28 -40 -28 -5 0 -7 -3 -3 -6 3 -3 39 10 79 29 40 19 131 62 201 96 71 33 130
61 132 61 2 0 77 35 167 79 90 43 183 88 208 99 25 11 125 58 223 105 155 73
180 88 196 118 23 44 136 260 241 464 46 88 86 162 89 165 3 3 7 10 8 15 1 6
22 47 46 93 25 45 44 82 42 82 -1 0 -22 -17 -46 -37z"/>
<path d="M2011 1906 c2 -3 22 -11 44 -19 92 -33 345 -127 405 -150 36 -14 200
-76 365 -137 165 -61 309 -115 320 -121 11 -5 29 -10 40 -11 11 -1 169 72 350
161 182 90 339 167 350 172 11 5 27 13 35 19 8 5 44 23 80 39 36 17 72 35 80
41 10 6 -317 10 -1029 10 -574 0 -1042 -2 -1040 -4z"/>
</g>
</svg>
